<svg xmlns="http://www.w3.org/2000/svg" xmlns:xlink="http://www.w3.org/1999/xlink" xml:space="preserve" viewBox="0 0 675 90"><a xlink:href="https://github.com/godot-nim/gdext-nim"><path fill="#CEB54D" d="M662 89H352c-7 0-12-5-12-12V13c0-7 5-12 12-12h310c7 0 12 5 12 12v64c0 7-5 12-12 12z"/><path d="M360 89H49c-7 0-12-5-12-12V13c0-7 5-12 12-12h310c7 0 12 5 12 12v64c1 7-5 12-11 12z"/><path fill="none" d="M60 25h316v45H60z" class="st0"/><circle cx="44.6" cy="45" r="44" fill="#CEB54D" class="st1"/><path d="m78 30-4 15v1l-5 16c-2 4-6 8-11 10-4 2-9 4-13 4s-9-2-14-4c-4-2-8-6-10-10l-6-16v-1l-4-15 6 3 4-4 4-7 5 5 9-2 6-6 5 6 9 2 6-5 3 7 4 4 6-3z"/><path fill="#CEB54D" d="m67 50-4 5-6 2-12-7-13 7-6-2-3-5c1-2 3-4 7-6s9-4 15-4c5 0 11 2 15 4l7 6z" class="st1"/><path fill="#CEB54D" d="m75 35-3 9-2 5-2-1c-1-2-4-5-7-6-5-3-10-4-16-4-7 0-12 1-17 4-3 1-6 4-7 6l-2 1-1-5-3-9 3 1v-1l5-4 2-5 4 3h1c3-1 6-2 10-1h1l4-5 4 5c4-1 7 0 10 1h1l4-3 2 5 5 4 1 1 3-1z" class="st1"/><text x="-442" y="-350" fill="#CEB54D" class="st1 st2 st3" font-family="'PT Sans Caption', 'Tahoma', 'Helvetica Neue Medium', 'PT Sans', sans-serif" font-size="63" transform="translate(546 421)">NIMBLE</text><text x="-154.1" y="-350" class="st1 st2 st3" font-family="'PT Sans Caption', 'Tahoma', 'Helvetica Neue Medium', 'PT Sans', sans-serif" font-size="63" transform="translate(546 421)">v0.5.0</text></a></svg>
